<?xml version="1.0" encoding="UTF-8" standalone="no"?>
<!-- Created with Inkscape (http://www.inkscape.org/) -->

<svg
   xmlns:dc="http://purl.org/dc/elements/1.1/"
   xmlns:cc="http://creativecommons.org/ns#"
   xmlns:rdf="http://www.w3.org/1999/02/22-rdf-syntax-ns#"
   xmlns:svg="http://www.w3.org/2000/svg"
   xmlns="http://www.w3.org/2000/svg"
   xmlns:sodipodi="http://sodipodi.sourceforge.net/DTD/sodipodi-0.dtd"
   xmlns:inkscape="http://www.inkscape.org/namespaces/inkscape"
   width="74.974319mm"
   height="141.11111mm"
   viewBox="0 0 265.65704 500.00001"
   id="svg2"
   version="1.1"
   inkscape:version="0.91 r13725"
   sodipodi:docname="drawing2.svg">
  <defs
     id="defs4" />
  <sodipodi:namedview
     id="base"
     pagecolor="#ffffff"
     bordercolor="#666666"
     borderopacity="1.0"
     inkscape:pageopacity="0.0"
     inkscape:pageshadow="2"
     inkscape:zoom="1.514"
     inkscape:cx="132.82851"
     inkscape:cy="250.00001"
     inkscape:document-units="px"
     inkscape:current-layer="layer1"
     showgrid="false"
     inkscape:window-width="1280"
     inkscape:window-height="962"
     inkscape:window-x="-8"
     inkscape:window-y="-8"
     inkscape:window-maximized="1"
     inkscape:snap-bbox="true"
     inkscape:bbox-paths="true"
     inkscape:bbox-nodes="true"
     inkscape:snap-bbox-edge-midpoints="true"
     inkscape:snap-bbox-midpoints="true"
     inkscape:object-paths="true"
     inkscape:snap-intersection-paths="true"
     inkscape:object-nodes="true"
     inkscape:snap-smooth-nodes="true"
     inkscape:snap-midpoints="true"
     inkscape:snap-global="false"
     inkscape:snap-nodes="false"
     fit-margin-top="0"
     fit-margin-left="0"
     fit-margin-right="0"
     fit-margin-bottom="0" />
  <metadata
     id="metadata7">
    <rdf:RDF>
      <cc:Work
         rdf:about="">
        <dc:format>image/svg+xml</dc:format>
        <dc:type
           rdf:resource="http://purl.org/dc/dcmitype/StillImage" />
        <dc:title></dc:title>
      </cc:Work>
    </rdf:RDF>
  </metadata>
  <g
     inkscape:label="Layer 1"
     inkscape:groupmode="layer"
     id="layer1"
     transform="translate(-238.3603,-184.5215)">
    <g
       id="g4346"
       transform="matrix(0.36694845,0,0,0.36694845,-174.95587,216.10391)">
      <path
         inkscape:connector-curvature="0"
         id="path4173"
         style="color:#000000;clip-rule:nonzero;display:inline;overflow:visible;visibility:visible;opacity:1;isolation:auto;mix-blend-mode:normal;color-interpolation:sRGB;color-interpolation-filters:linearRGB;solid-color:#000000;solid-opacity:1;fill:#e3b60d;fill-opacity:1;fill-rule:nonzero;stroke:none;stroke-width:0.25;stroke-linecap:round;stroke-linejoin:round;stroke-miterlimit:4;stroke-dasharray:none;stroke-dashoffset:0;stroke-opacity:1;color-rendering:auto;image-rendering:auto;shape-rendering:auto;text-rendering:auto;enable-background:accumulate"
         d="m 1126.3603,-86.067703 0,1003.732423 361.9806,358.85678 m -361.9806,-1362.589203 723.9628,8.2e-5 -0.074,1003.732341 -361.9086,358.85668" />
      <path
         inkscape:connector-curvature="0"
         style="color:#000000;clip-rule:nonzero;display:inline;overflow:visible;visibility:visible;opacity:1;isolation:auto;mix-blend-mode:normal;color-interpolation:sRGB;color-interpolation-filters:linearRGB;solid-color:#000000;solid-opacity:1;fill:#34305f;fill-opacity:1;fill-rule:nonzero;stroke:none;stroke-width:0.25;stroke-linecap:round;stroke-linejoin:round;stroke-miterlimit:4;stroke-dasharray:none;stroke-dashoffset:0;stroke-opacity:1;color-rendering:auto;image-rendering:auto;shape-rendering:auto;text-rendering:auto;enable-background:accumulate"
         d="m 1139.3604,-73.068314 0,985.314434 348.9805,345.96868 348.9082,-345.96868 0.074,-985.314424 -697.963,1e-5 z"
         id="path4175" />
      <path
         inkscape:connector-curvature="0"
         style="color:#000000;clip-rule:nonzero;display:inline;overflow:visible;visibility:visible;opacity:1;isolation:auto;mix-blend-mode:normal;color-interpolation:sRGB;color-interpolation-filters:linearRGB;solid-color:#000000;solid-opacity:1;fill:#e3b60d;fill-opacity:1;fill-rule:nonzero;stroke:none;stroke-width:0.25;stroke-linecap:round;stroke-linejoin:round;stroke-miterlimit:4;stroke-dasharray:none;stroke-dashoffset:0;stroke-opacity:1;color-rendering:auto;image-rendering:auto;shape-rendering:auto;text-rendering:auto;enable-background:accumulate"
         d="m 1167.3759,-45.052694 10e-5,945.623014 320.9629,318.19138 320.8946,-318.18938 0.07,-945.625064 -641.9279,10e-6 z"
         id="path4177" />
      <path
         inkscape:connector-curvature="0"
         style="color:#000000;clip-rule:nonzero;display:inline;overflow:visible;visibility:visible;opacity:1;isolation:auto;mix-blend-mode:normal;color-interpolation:sRGB;color-interpolation-filters:linearRGB;solid-color:#000000;solid-opacity:1;fill:#34305f;fill-opacity:1;fill-rule:nonzero;stroke:none;stroke-width:0.25;stroke-linecap:round;stroke-linejoin:round;stroke-miterlimit:4;stroke-dasharray:none;stroke-dashoffset:0;stroke-opacity:1;color-rendering:auto;image-rendering:auto;shape-rendering:auto;text-rendering:auto;enable-background:accumulate"
         d="m 1173.8936,-38.535134 0,936.390654 314.4434,311.73048 314.3808,-311.73048 0.068,-936.390654 -628.8927,3e-5 z"
         id="path4179" />
      <path
         inkscape:connector-curvature="0"
         style="color:#000000;clip-rule:nonzero;display:inline;overflow:visible;visibility:visible;opacity:1;isolation:auto;mix-blend-mode:normal;color-interpolation:sRGB;color-interpolation-filters:linearRGB;solid-color:#000000;solid-opacity:1;fill:#e3b60d;fill-opacity:1;fill-rule:nonzero;stroke:none;stroke-width:0.25;stroke-linecap:round;stroke-linejoin:round;stroke-miterlimit:4;stroke-dasharray:none;stroke-dashoffset:0;stroke-opacity:1;color-rendering:auto;image-rendering:auto;shape-rendering:auto;text-rendering:auto;enable-background:accumulate"
         d="m 1183.4599,-28.968824 10e-5,922.836044 304.877,302.24798 304.8145,-302.24598 0.068,-922.838014 -609.7599,8e-5 z"
         id="path4181" />
      <g
         transform="translate(-99.087092,-4.2470704e-6)"
         id="g4269">
        <path
           sodipodi:nodetypes="ccccccccccccccccccc"
           inkscape:connector-curvature="0"
           style="color:#000000;clip-rule:nonzero;display:inline;overflow:visible;visibility:visible;opacity:1;isolation:auto;mix-blend-mode:normal;color-interpolation:sRGB;color-interpolation-filters:linearRGB;solid-color:#000000;solid-opacity:1;fill:#34305f;fill-opacity:1;fill-rule:nonzero;stroke:none;stroke-width:0.25;stroke-linecap:round;stroke-linejoin:round;stroke-miterlimit:4;stroke-dasharray:none;stroke-dashoffset:0;stroke-opacity:1;color-rendering:auto;image-rendering:auto;shape-rendering:auto;text-rendering:auto;enable-background:accumulate"
           d="m 1649.6666,141.93359 -372.0429,372.04297 0,192.6211 235.8789,-236.11328 0,37.63281 -181.3399,181.33984 -3.9648,3.96485 0,192.46874 189.0645,-189.0664 0,229.92578 380.0156,-380.08594 0.014,-192.32812 -243.8653,243.86523 0,-37.63281 185.3047,-185.30469 0,-192.46875 -189.0644,189.06446 0,-229.92579 z"
           id="path4192" />
        <path
           style="color:#000000;clip-rule:nonzero;display:inline;overflow:visible;visibility:visible;opacity:1;isolation:auto;mix-blend-mode:normal;color-interpolation:sRGB;color-interpolation-filters:linearRGB;solid-color:#000000;solid-opacity:1;fill:#e3b60d;fill-opacity:1;fill-rule:nonzero;stroke:none;stroke-width:0.25;stroke-linecap:round;stroke-linejoin:round;stroke-miterlimit:4;stroke-dasharray:none;stroke-dashoffset:0;stroke-opacity:1;color-rendering:auto;image-rendering:auto;shape-rendering:auto;text-rendering:auto;enable-background:accumulate"
           d="m 1640.4733,164.12695 -370.4688,370.46875 0,166.60547 236.9942,-237.21289 15.6972,-15.69403 0,22.19013 0,37.63281 0,3.80664 -2.6933,2.69336 -181.3399,181.33984 -1.2714,1.27149 0,166.46875 173.3711,-173.37305 15.6933,-15.69332 0,22.19332 0,207.73047 379.6119,-379.67824 0.01,-166.32617 -246.1509,246.15089 -15.6934,15.69336 0,-22.19336 0,-37.63281 0,-3.80664 2.6934,-2.69336 182.6113,-182.61133 0,-166.46875 -173.3711,173.3711 -15.6934,15.69336 0,-22.19336 0,-207.73243 z"
           id="path4205"
           inkscape:connector-curvature="0"
           sodipodi:nodetypes="ccccccccccccccccccccccccccccccc" />
        <path
           style="color:#000000;clip-rule:nonzero;display:inline;overflow:visible;visibility:visible;opacity:1;isolation:auto;mix-blend-mode:normal;color-interpolation:sRGB;color-interpolation-filters:linearRGB;solid-color:#000000;solid-opacity:1;fill:#34305f;fill-opacity:1;fill-rule:nonzero;stroke:none;stroke-width:0.25;stroke-linecap:round;stroke-linejoin:round;stroke-miterlimit:4;stroke-dasharray:none;stroke-dashoffset:0;stroke-opacity:1;color-rendering:auto;image-rendering:auto;shape-rendering:auto;text-rendering:auto;enable-background:accumulate"
           d="m 1633.8913,180.01758 -382.5547,382.55469 0,147.97656 251.0058,-251.21289 0,-0.002 15.6973,-15.69336 11.2363,-11.23828 0,15.89258 0,22.18946 0,37.63281 0,3.80664 0,2.72656 -1.9277,1.92773 -2.6934,2.69336 -180.6836,180.6836 0,147.85156 162.1348,-162.13672 15.6934,-15.69336 11.2363,-11.23633 0,15.89063 0,22.19336 0,191.83789 388.0145,-388.07898 0.01,-147.70898 -256.4813,256.48132 -15.6934,15.69336 -11.2363,11.23633 0,-15.89063 0,-22.19336 0,-37.63281 0,-3.80664 0,-2.72657 1.9277,-1.92773 2.6934,-2.69336 180.6836,-180.68359 0,-147.85156 -162.1348,162.13476 -15.6933,15.69336 -11.2364,11.23633 0,-15.89063 0,-22.19335 0,-191.8418 z"
           id="path4234"
           inkscape:connector-curvature="0"
           sodipodi:nodetypes="ccccccccccccccccccccccccccccccccccccccccccc" />
      </g>
      <g
         transform="translate(1141.5114,0)"
         id="g4340">
        <path
           inkscape:connector-curvature="0"
           style="color:#000000;clip-rule:nonzero;display:inline;overflow:visible;visibility:visible;opacity:1;isolation:auto;mix-blend-mode:normal;color-interpolation:sRGB;color-interpolation-filters:linearRGB;solid-color:#000000;solid-opacity:1;fill:#34305f;fill-opacity:1;fill-rule:nonzero;stroke:none;stroke-width:0.25;stroke-linecap:round;stroke-linejoin:round;stroke-miterlimit:4;stroke-dasharray:none;stroke-dashoffset:0;stroke-opacity:1;color-rendering:auto;image-rendering:auto;shape-rendering:auto;text-rendering:auto;enable-background:accumulate"
           d="M 104.20898,1.6894531 60.28125,110.4082 l 45.53125,0 5.99805,-15.734372 16.12109,0 5.88867,0 17.3711,0 5.99804,15.734372 44.28125,0 -43.92773,-108.7187469 -0.38867,0 -52.55664,0 -0.38868,0 z m 27.26954,31.8652349 11.91406,34.55664 -11.39258,0 -1.04492,0 -11.39258,0 11.91602,-34.55664 z"
           id="path4274" />
        <path
           inkscape:connector-curvature="0"
           style="color:#000000;clip-rule:nonzero;display:inline;overflow:visible;visibility:visible;opacity:1;isolation:auto;mix-blend-mode:normal;color-interpolation:sRGB;color-interpolation-filters:linearRGB;solid-color:#000000;solid-opacity:1;fill:#34305f;fill-opacity:1;fill-rule:nonzero;stroke:none;stroke-width:0.25;stroke-linecap:round;stroke-linejoin:round;stroke-miterlimit:4;stroke-dasharray:none;stroke-dashoffset:0;stroke-opacity:1;color-rendering:auto;image-rendering:auto;shape-rendering:auto;text-rendering:auto;enable-background:accumulate"
           d="m 237.5,1.9550781 c -13.62094,0 -34.38281,0.2721701 -34.38281,23.8652339 l 0,13.832032 41.49804,0 0,-3.617188 c 0,-5.180158 3.90878,-6.423828 7.75977,-6.423828 l 36.53125,0 c 5.07068,0 6.0332,3.496254 6.0332,6.763672 0,2.802123 -0.39663,6.832031 -4.89843,6.832031 l -38.16602,0 0,6.734375 0,12.232422 0,6.734375 38.16602,0 c 4.5018,0 4.89843,4.561158 4.89843,7.363281 0,3.267418 -0.96252,6.761719 -6.0332,6.761719 l -36.53125,0 c -3.85099,0 -7.75977,-1.24367 -7.75977,-6.423828 l 0,-4.146484 -41.49804,0 0,13.832031 c 0,23.593058 20.76187,23.865238 34.38281,23.865238 l 63.99219,0 c 26.12471,0 33.76562,-8.67827 33.76562,-21.300785 l 0,-19.876953 c 0,-6.315948 -5.18833,-10.836927 -11.88867,-12.845703 6.70034,-2.008776 11.26953,-6.334443 11.26953,-12.650391 l 0,-20.230469 c 0,-12.622515 -7.64091,-21.3007809 -33.76562,-21.3007809 l -63.37305,0 z"
           id="path4294" />
        <path
           inkscape:connector-curvature="0"
           style="opacity:1;fill:#34305f;fill-opacity:1;stroke:none;stroke-width:4;stroke-linecap:butt;stroke-linejoin:miter;stroke-miterlimit:4;stroke-dasharray:none;stroke-dashoffset:0;stroke-opacity:1"
           d="m 379.04297,1.71875 c -20.45235,0 -29.16797,9.77607 -29.16797,21.919922 l 0,64.910156 c 0,12.143852 7.27607,21.919922 32.41992,21.919922 l 44.70508,0 8.76953,0 19.95703,0 c 25.14385,0 32.41992,-9.77607 32.41992,-21.919922 l 0,-64.910156 c 0,-12.143852 -8.71561,-21.919922 -29.16796,-21.919922 l -23.20899,0 -8.76953,0 -47.95703,0 z m 21.88086,27.582031 6.81055,0 22.71679,0 6.81055,0 c 8.87389,0 9.80469,2.962153 9.80469,9.210938 l 0,3.660156 0,27.875 0,3.660156 c 0,6.248785 -0.9308,9.210938 -9.80469,9.210938 l -6.81055,0 -22.71679,0 -6.81055,0 c -8.87389,0 -9.80469,-2.962153 -9.80469,-9.210938 l 0,-3.660156 0,-27.875 0,-3.660156 c 0,-6.248785 0.9308,-9.210938 9.80469,-9.210938 z"
           id="rect4298" />
        <path
           inkscape:connector-curvature="0"
           style="color:#000000;clip-rule:nonzero;display:inline;overflow:visible;visibility:visible;opacity:1;isolation:auto;mix-blend-mode:normal;color-interpolation:sRGB;color-interpolation-filters:linearRGB;solid-color:#000000;solid-opacity:1;fill:#34305f;fill-opacity:1;fill-rule:nonzero;stroke:none;stroke-width:0.25;stroke-linecap:round;stroke-linejoin:round;stroke-miterlimit:4;stroke-dasharray:none;stroke-dashoffset:0;stroke-opacity:1;color-rendering:auto;image-rendering:auto;shape-rendering:auto;text-rendering:auto;enable-background:accumulate"
           d="m 503.09375,1.6425781 0,0.00195 0,108.8418019 0,0.002 88.90625,0 c 36.14242,0 41.375,-8.26331 41.375,-24.406252 l 0,-16.984375 c 0,-6.309422 -5.04057,-10.621558 -12.4375,-12.861328 7.39693,-2.23977 11.6875,-6.57925 11.6875,-12.888672 l 0,-17.298828 C 632.625,9.9058913 628.14242,1.6425781 592,1.6425781 l -88.90625,0 z m 41.4668,27.6914059 41.85156,0 c 1.10573,0 6.4082,-0.0784 6.4082,6.738282 0,6.816678 -3.53469,7.558593 -4.77343,7.558593 l -43.48633,0 0,-14.296875 z m 0,39.367188 42.10156,0 c 1.10573,0 6.4082,-0.07644 6.4082,6.740234 0,6.816678 -3.53469,7.556641 -4.77343,7.556641 l -43.73633,0 0,-14.296875 z"
           id="path4327" />
      </g>
    </g>
  </g>
</svg>
