<svg width="118" height="47" viewBox="0 0 118 47" fill="none" xmlns="http://www.w3.org/2000/svg">
<path fill-rule="evenodd" clip-rule="evenodd" d="M12.0515 17.6951C12.0515 17.6951 4.85777 10.0708 8.50876 7.57809C8.76298 7.37356 9.05564 7.2215 9.36963 7.13079C9.68363 7.04008 10.0127 7.01254 10.3375 7.04979C10.6623 7.08704 10.9764 7.18833 11.2614 7.34773C11.5464 7.50713 11.7966 7.72145 11.9973 7.97815C12.198 7.72368 12.4473 7.5113 12.731 7.35328C13.0146 7.19526 13.327 7.09474 13.65 7.05754C13.9729 7.02034 14.3001 7.04719 14.6126 7.13654C14.9251 7.22589 15.2166 7.37596 15.4704 7.57809C19.1756 10.0708 12.0515 17.6951 12.0515 17.6951ZM11.9896 9.39377C11.7601 9.11062 11.5008 8.8527 11.2161 8.62441C10.9285 8.37387 10.5625 8.23007 10.1804 8.21745C9.79827 8.20483 9.42354 8.32416 9.11984 8.55517C8.97091 8.64759 8.84624 8.77394 8.75612 8.92378C8.666 9.07361 8.61303 9.24263 8.60159 9.41685C8.59758 9.49117 8.59758 9.56565 8.60159 9.63997C8.60159 11.3172 10.4348 14.0484 12.0205 15.9333C13.5676 14.0561 15.3853 11.3172 15.3853 9.66305C15.3896 9.58617 15.3896 9.50912 15.3853 9.43224C15.3742 9.25495 15.3207 9.08288 15.2292 8.93032C15.1377 8.77777 15.0109 8.64915 14.8593 8.55517C14.587 8.29471 14.2238 8.14922 13.846 8.14922C13.4682 8.14922 13.1051 8.29471 12.8327 8.55517C12.5124 8.79492 12.2239 9.07412 11.9741 9.38608" fill="#1E1E1E"/>
<path fill-rule="evenodd" clip-rule="evenodd" d="M0.487305 0.508789H23.6928V23.5895H0.487305V0.508789Z" stroke="#1E1E1E" stroke-width="1.25" stroke-miterlimit="10"/>
<path fill-rule="evenodd" clip-rule="evenodd" d="M23.5767 0.484619H117.52V23.5653H23.5767V0.484619Z" stroke="#1E1E1E" stroke-width="1.25" stroke-miterlimit="10"/>
<path fill-rule="evenodd" clip-rule="evenodd" d="M23.6152 23.573H87.6702V46.5152H23.6152V23.573Z" stroke="#1E1E1E" stroke-width="1.25" stroke-miterlimit="10"/>
<path d="M38.2968 17.6952H36.626V8.0936H33.9496V17.6952H32.2788V6.6626H38.2968V17.6952Z" fill="#1E1E1E"/>
<path d="M41.1123 8.77047C41.1123 7.07789 42.6129 6.4624 43.9124 6.4624C45.2119 6.4624 46.6971 7.0625 46.6971 8.77047V15.5716C46.6971 17.2488 45.1965 17.8797 43.9124 17.8797C42.6284 17.8797 41.1123 17.2796 41.1123 15.5716V8.77047ZM45.0263 8.77047C45.0263 8.1396 44.423 7.90879 43.9124 7.90879C43.4019 7.90879 42.7831 8.12421 42.7831 8.77047V15.5716C42.7831 16.2025 43.4019 16.4333 43.9124 16.4333C44.423 16.4333 45.0263 16.2025 45.0263 15.5716V8.77047Z" fill="#1E1E1E"/>
<path d="M49.2344 17.695V6.66244H52.3284C52.635 6.63145 52.9447 6.66428 53.2379 6.75885C53.531 6.85342 53.8011 7.00765 54.0311 7.21174C54.261 7.41582 54.4457 7.66528 54.5734 7.94424C54.7011 8.2232 54.769 8.52554 54.7728 8.83203V10.1861C54.7591 10.5283 54.667 10.8628 54.5034 11.1642C54.3399 11.4656 54.1092 11.7257 53.8291 11.9248C54.2093 12.0797 54.5323 12.3475 54.7538 12.6918C54.9753 13.036 55.0846 13.4399 55.0667 13.8482V15.2023C55.0837 15.5368 55.0295 15.871 54.9076 16.1832C54.7857 16.4953 54.5988 16.7783 54.3593 17.0137C54.1197 17.249 53.8329 17.4314 53.5176 17.5488C53.2023 17.6662 52.8656 17.716 52.5296 17.695H49.2344ZM53.102 9.01667C53.115 8.89358 53.1005 8.76914 53.0595 8.65229C53.0184 8.53543 52.9519 8.42906 52.8646 8.34081C52.7774 8.25255 52.6716 8.18461 52.5548 8.14184C52.438 8.09907 52.3132 8.08254 52.1892 8.09344H50.9052V11.294H52.1583C52.2819 11.3035 52.4061 11.286 52.5223 11.2427C52.6384 11.1995 52.7436 11.1315 52.8306 11.0436C52.9175 10.9556 52.9841 10.8498 53.0256 10.7336C53.0672 10.6174 53.0827 10.4935 53.071 10.3707L53.102 9.01667ZM53.3727 13.8482C53.3812 13.6965 53.3566 13.5448 53.3007 13.4034C53.2447 13.262 53.1587 13.1343 53.0485 13.0291C52.9383 12.9239 52.8065 12.8436 52.6622 12.7938C52.5179 12.7439 52.3645 12.7257 52.2124 12.7404H50.9052V16.2948H52.2356C52.3878 16.3089 52.5412 16.2895 52.6851 16.2382C52.829 16.1868 52.9597 16.1047 53.0682 15.9975C53.1766 15.8904 53.2601 15.7609 53.3127 15.6182C53.3653 15.4755 53.3858 15.323 53.3727 15.1715V13.8482Z" fill="#1E1E1E"/>
<path d="M62.5389 17.6952H57.6348V6.6626H62.5389V8.0936H59.3056V11.2787H61.9819V12.7097H59.3056V16.2334H62.5389V17.6952Z" fill="#1E1E1E"/>
<path d="M65.1377 17.6952V6.6626H67.9997C69.7633 6.6626 70.8927 7.6166 70.8927 9.38612V10.771C70.8927 12.5251 69.7633 13.4791 67.9997 13.4791H66.8085V17.6952H65.1377ZM69.2219 9.38612C69.2373 9.21909 69.2168 9.05072 69.1619 8.89213C69.107 8.73354 69.0189 8.58835 68.9034 8.46617C68.7878 8.34398 68.6476 8.24759 68.4918 8.18336C68.336 8.11914 68.1683 8.08854 67.9997 8.0936H66.8085V12.0327H67.9997C68.1651 12.0362 68.3295 12.0055 68.4824 11.9427C68.6354 11.88 68.7736 11.7864 68.8884 11.6678C69.0032 11.5493 69.0921 11.4085 69.1495 11.2541C69.2069 11.0998 69.2315 10.9353 69.2219 10.771V9.38612Z" fill="#1E1E1E"/>
<path d="M79.1078 17.6952H77.437V12.7097H74.7606V17.6952H73.0898V6.6626H74.7606V11.2787H77.437V6.6626H79.1078V17.6952Z" fill="#1E1E1E"/>
<path d="M86.5024 17.6952V10.771L83.7023 17.6952H82.1553V6.6626H83.8261V13.5868L86.6262 6.6626H88.1732V17.6952H86.5024Z" fill="#1E1E1E"/>
<path d="M94.9028 13.8482H96.5736V15.587C96.5736 17.2642 95.0729 17.895 93.7889 17.895C92.5049 17.895 90.9888 17.2949 90.9888 15.587V8.77047C90.9888 7.07789 92.4894 6.4624 93.7889 6.4624C95.0884 6.4624 96.5736 7.0625 96.5736 8.77047V10.5092H94.9028V8.77047C94.9028 8.1396 94.2994 7.90879 93.7889 7.90879C93.2784 7.90879 92.6596 8.12421 92.6596 8.77047V15.5716C92.6596 16.2025 93.2784 16.4333 93.7889 16.4333C94.2994 16.4333 94.9028 16.2025 94.9028 15.5716V13.8482Z" fill="#1E1E1E"/>
<path d="M105.036 14.9563C105.036 16.7412 103.906 17.6798 102.143 17.6798H99.2808V6.6626H100.952V10.8787H102.143C103.906 10.8787 105.036 11.8173 105.036 13.6022V14.9563ZM102.143 16.2334C102.31 16.2395 102.477 16.2101 102.632 16.1472C102.788 16.0843 102.928 15.9893 103.043 15.8686C103.159 15.7479 103.247 15.6041 103.303 15.4468C103.358 15.2895 103.379 15.1223 103.365 14.9563V13.6022C103.37 13.4375 103.343 13.2734 103.284 13.1193C103.225 12.9652 103.137 12.824 103.023 12.704C102.91 12.584 102.773 12.4874 102.622 12.4197C102.471 12.352 102.308 12.3147 102.143 12.3097H100.952V16.2334H102.143Z" fill="#1E1E1E"/>
<path d="M40.9964 40.7757L38.5443 35.7749H38.1266V40.7757H36.4558V35.7749H36.0536L33.5938 40.7757H31.9385V40.468L34.4756 35.1441L32.0622 30.0048V29.7278H33.733L35.9762 34.3439H36.4558V29.7278H38.1266V34.3439H38.6217L40.8494 29.7278H42.5434V30.0048L40.161 35.1441L42.6826 40.468V40.7757H40.9964Z" fill="#1E1E1E"/>
<path d="M49.0176 40.7757V33.8515L46.2174 40.7757H44.6704V29.7278H46.3412V36.652L49.1413 29.7278H50.6884V40.7757H49.0176Z" fill="#1E1E1E"/>
<path d="M53.4424 40.7758V29.7279H56.5365C56.843 29.6969 57.1528 29.7297 57.4459 29.8243C57.739 29.9188 58.0092 30.0731 58.2391 30.2772C58.469 30.4812 58.6537 30.7307 58.7814 31.0097C58.9091 31.2886 58.977 31.591 58.9808 31.8975V33.2515C58.9644 33.5957 58.8688 33.9315 58.7011 34.233C58.5334 34.5345 58.2983 34.7936 58.0139 34.9903C58.4011 35.1423 58.7308 35.4109 58.9569 35.7586C59.183 36.1062 59.2941 36.5155 59.2747 36.929V38.2831C59.2917 38.6176 59.2375 38.9518 59.1156 39.264C58.9937 39.5761 58.8068 39.8592 58.5673 40.0945C58.3278 40.3298 58.0409 40.5122 57.7256 40.6296C57.4103 40.747 57.0736 40.7969 56.7376 40.7758H53.4424ZM57.31 32.0975C57.323 31.9744 57.3085 31.85 57.2675 31.7331C57.2264 31.6163 57.1599 31.5099 57.0727 31.4216C56.9854 31.3334 56.8796 31.2654 56.7628 31.2227C56.646 31.1799 56.5212 31.1634 56.3972 31.1743H55.1132V34.3748H56.3663C56.4897 34.3791 56.6125 34.3567 56.7264 34.3091C56.8402 34.2615 56.9422 34.1898 57.0254 34.0991C57.1085 34.0083 57.1709 33.9006 57.208 33.7835C57.2451 33.6663 57.2561 33.5426 57.2404 33.4208L57.31 32.0975ZM57.6349 36.9137C57.6483 36.7588 57.6271 36.6028 57.5728 36.457C57.5185 36.3112 57.4325 36.1792 57.3208 36.0704C57.2092 35.9615 57.0747 35.8786 56.9271 35.8276C56.7795 35.7765 56.6223 35.7586 56.4668 35.775H55.1132V39.3294H56.4668C56.6181 39.3465 56.7712 39.3305 56.9156 39.2825C57.0599 39.2346 57.192 39.1558 57.3025 39.0517C57.4131 38.9476 57.4994 38.8208 57.5555 38.68C57.6115 38.5393 57.636 38.3881 57.6271 38.237L57.6349 36.9137Z" fill="#1E1E1E"/>
<path d="M65.8647 40.7757V33.8515L63.0646 40.7757H61.5176V29.7278H63.1884V36.652L65.9885 29.7278H67.5355V40.7757H65.8647Z" fill="#1E1E1E"/>
<path d="M76.4003 40.7757V33.2207L74.1726 37.6214L71.9371 33.2207V40.7757H70.2896V29.7278H71.8366L74.1571 34.4362L76.5241 29.7278H78.0247V40.7757H76.4003Z" fill="#1E1E1E"/>
</svg>
