<svg viewBox="0 0 128 34" fill="none" xmlns="http://www.w3.org/2000/svg">
  <path d="M93.727 27.2125V33.3233H73.7596V0.143066H80.5391V27.2125H93.727Z" fill="black"/>
  <path d="M111.005 33.3744C101.733 33.3744 94.1804 25.8841 94.1804 16.6872C94.1804 7.49033 101.722 0 111.005 0C120.288 0 127.83 7.49033 127.83 16.6872C127.83 25.8841 120.278 33.3744 111.005 33.3744ZM111.005 6.02905C105.081 6.02905 100.259 10.8114 100.259 16.6872C100.259 22.563 105.081 27.3453 111.005 27.3453C116.93 27.3453 121.751 22.563 121.751 16.6872C121.741 10.8114 116.93 6.02905 111.005 6.02905Z" fill="black"/>
  <path d="M51.9172 33.3744C42.6444 33.3744 35.0923 25.8841 35.0923 16.6872C35.0923 7.49033 42.6444 0 51.9172 0C61.19 0 68.7421 7.49033 68.7421 16.6872C68.7421 25.8841 61.2003 33.3744 51.9172 33.3744ZM51.9172 6.02905C45.9929 6.02905 41.1711 10.8114 41.1711 16.6872C41.1711 22.563 45.9929 27.3453 51.9172 27.3453C57.8415 27.3453 62.6633 22.563 62.6633 16.6872C62.6633 10.8114 57.8415 6.02905 51.9172 6.02905Z" fill="black"/>
  <path d="M31.8777 27.2125L30.1159 33.3233H24.7377C20.8637 33.3233 19.2667 31.2285 20.4001 27.2942L22.6565 19.436H10.777L6.77942 33.3233H0L9.55095 0.143066H16.3304L12.4873 13.4989H16.6704L28.6116 0.143066H36.0917L23.5425 13.4989H31.1565L27.6637 25.6388C27.3856 26.5994 27.8286 27.2125 28.7971 27.2125H31.8777Z" fill="black"/>
</svg>
