<?xml version="1.0" encoding="utf-8"?>
<!-- Generator: Adobe Illustrator 26.0.2, SVG Export Plug-In . SVG Version: 6.00 Build 0)  -->
<svg version="1.1" id="Layer_1" xmlns="http://www.w3.org/2000/svg" xmlns:xlink="http://www.w3.org/1999/xlink" x="0px" y="0px"
	 viewBox="0 0 96.82 96.76" style="enable-background:new 0 0 96.82 96.76;" xml:space="preserve">
<style type="text/css">
	.st0{fill:#192665;}
	.st1{fill:#D48233;}
</style>
<path class="st0" d="M42.68,43.18c0-14.28,0-28.57,0-43.18c18.2,0,35.9,0,53.89,0c0,14.38,0,28.78,0,43.18
	c-5-0.11-10-0.21-15.01-0.32c0-9.26,0-18.51,0-27.6c-8.13,0-15.54,0-22.91,0c0,9.52,0,18.67,0,27.83
	c0.01,5.08,0.01,10.16,0.02,15.24c-0.07,7.68-0.13,15.36-0.2,23.03c-5.19,0.02-10.38,0.03-15.57,0.05
	c-0.09-7.68-0.18-15.37-0.27-23.05C42.65,53.3,42.66,48.24,42.68,43.18z"/>
<path class="st1" d="M42.9,81.41c5.19-0.02,10.38-0.03,15.57-0.04c7.64,0.09,15.28,0.19,22.91,0.28c0.08,5.04,0.17,10.08,0.25,15.12
	c-27.09,0-54.18,0-81.63,0C0,79,0,61.44,0,43.18c14.21,0,28.44,0,42.68,0c-0.02,5.06-0.03,10.12-0.05,15.18c-9.23,0-18.46,0-27.52,0
	c0,8.19,0,15.58,0,23.06C24.65,81.41,33.78,81.41,42.9,81.41z"/>
<path class="st0" d="M81.63,96.76c-0.08-5.04-0.17-10.08-0.25-15.12c0.06-7.72,0.12-15.44,0.18-23.17
	c4.98-0.13,9.96-0.25,14.94-0.38c0.1,11.48,0.21,22.97,0.31,34.45c0.01,1.3,0,2.59,0,4.22C91.5,96.76,86.57,96.76,81.63,96.76z"/>
<path class="st1" d="M96.5,58.1c-4.98,0.13-9.96,0.25-14.94,0.38c-7.63-0.05-15.26-0.1-22.89-0.14c-0.01-5.08-0.01-10.16-0.02-15.24
	c7.64-0.08,15.27-0.16,22.91-0.23c5,0.11,10,0.21,15.01,0.32C96.54,48.15,96.52,53.13,96.5,58.1z"/>
</svg>
