<?xml version="1.0" encoding="utf-8"?>
<!-- Generator: Adobe Illustrator 26.0.2, SVG Export Plug-In . SVG Version: 6.00 Build 0)  -->
<svg version="1.1" id="Layer_1" xmlns="http://www.w3.org/2000/svg" xmlns:xlink="http://www.w3.org/1999/xlink" x="0px" y="0px"
	 viewBox="0 0 24.46 24.33" style="enable-background:new 0 0 24.46 24.33;" xml:space="preserve">
<style type="text/css">
	.st0{fill-rule:evenodd;clip-rule:evenodd;fill:#1E1E1E;}
	.st1{fill:none;stroke:#1E1E1E;stroke-width:1.25;stroke-miterlimit:10;}
</style>
<path class="st0" d="M12.19,17.81c0,0-7.19-7.62-3.54-10.12c0.25-0.2,0.55-0.36,0.86-0.45c0.31-0.09,0.64-0.12,0.97-0.08
	c0.32,0.04,0.64,0.14,0.92,0.3s0.54,0.37,0.74,0.63c0.2-0.25,0.45-0.47,0.73-0.62c0.28-0.16,0.6-0.26,0.92-0.3
	c0.32-0.04,0.65-0.01,0.96,0.08c0.31,0.09,0.6,0.24,0.86,0.44C19.31,10.19,12.19,17.81,12.19,17.81z M12.13,9.51
	c-0.23-0.28-0.49-0.54-0.77-0.77c-0.29-0.25-0.65-0.39-1.04-0.41C9.94,8.32,9.56,8.44,9.26,8.67C9.11,8.76,8.98,8.89,8.89,9.04
	C8.8,9.19,8.75,9.36,8.74,9.53c0,0.07,0,0.15,0,0.22c0,1.68,1.83,4.41,3.42,6.29c1.55-1.88,3.36-4.62,3.36-6.27
	c0-0.08,0-0.15,0-0.23c-0.01-0.18-0.06-0.35-0.16-0.5C15.28,8.89,15.15,8.77,15,8.67c-0.27-0.26-0.64-0.41-1.01-0.41
	s-0.74,0.15-1.01,0.41c-0.32,0.24-0.61,0.52-0.86,0.83"/>
<path class="st1" d="M0.62,0.62h23.21v23.08H0.62V0.62z"/>
</svg>
