<?xml version="1.0" encoding="utf-8"?>
<!-- Generator: Adobe Illustrator 26.0.2, SVG Export Plug-In . SVG Version: 6.00 Build 0)  -->
<svg version="1.1" id="Layer_1" xmlns="http://www.w3.org/2000/svg" xmlns:xlink="http://www.w3.org/1999/xlink" x="0px" y="0px"
	 viewBox="0 0 9.06 10.66" style="enable-background:new 0 0 9.06 10.66;" xml:space="preserve">
<style type="text/css">
	.st0{fill-rule:evenodd;clip-rule:evenodd;fill:#1E1E1E;}
</style>
<path class="st0" d="M4.58,10.66c0,0-7.19-7.62-3.54-10.12c0.25-0.2,0.55-0.36,0.86-0.45c0.31-0.09,0.64-0.12,0.97-0.08
	c0.32,0.04,0.64,0.14,0.92,0.3s0.54,0.37,0.74,0.63c0.2-0.25,0.45-0.47,0.73-0.62c0.28-0.16,0.6-0.26,0.92-0.3
	C6.5-0.01,6.82,0.01,7.14,0.1C7.45,0.19,7.74,0.34,8,0.54C11.7,3.04,4.58,10.66,4.58,10.66z M4.51,2.36
	C4.28,2.08,4.03,1.82,3.74,1.59C3.45,1.34,3.09,1.2,2.71,1.18C2.32,1.17,1.95,1.29,1.64,1.52C1.5,1.61,1.37,1.74,1.28,1.89
	C1.19,2.04,1.14,2.21,1.13,2.38c0,0.07,0,0.15,0,0.22c0,1.68,1.83,4.41,3.42,6.29c1.55-1.88,3.36-4.62,3.36-6.27
	c0-0.08,0-0.15,0-0.23C7.9,2.22,7.85,2.05,7.75,1.9C7.66,1.74,7.54,1.62,7.38,1.52C7.11,1.26,6.75,1.12,6.37,1.12
	S5.63,1.26,5.36,1.52C5.04,1.76,4.75,2.04,4.5,2.35"/>
</svg>
